<?xml version="1.0" encoding="UTF-8"?>
<svg id="Layer_2" data-name="Layer 2" xmlns="http://www.w3.org/2000/svg" viewBox="0 0 261.87 47.37">
  <g id="Layer_1-2" data-name="Layer 1">
    <g>
      <path d="M19.77,1.15l18.7,45.51-18.34-9.7,2.71-2.22,4.7-2.89,1.76,5.29c-.27.29-2.05-1.25-2.73-1.34-.42-.06-1.71.07-1.5.81.2.41,6.55,3.7,7.51,4.13.28.13.74.6.95.11L19.07,7.5,5.31,40.31l17.48-11.64c.35-.67-1.06-3.63-1.44-4.57-.18-.45-1.83-4.58-2.28-4.24l-2.82,7.41,3.33-1.78.75,2.14-9.73,6.7,8.64-20.81,6.83,16.17L.02,47.37c-.29-.37,2.92-7.75,3.35-8.81C8.09,27.04,12.78,15.34,17.84,3.98c.2-.45,1.26-3.45,1.93-2.83"/>
      <g>
        <path d="M131.45,1.07l-13.78,45.02c-.34.04-.63.04-.99,0l-11.59-30.15-11.6,30.17h-1.04S78.67,1.08,78.67,1.08l5.73-.02,9.29,30.11L105.16,1.07l11.24,29.85c.04.19.09.23.15.09L125.98,1.07h5.46Z"/>
        <path d="M206.82,46.27l-.59.1-26.78-31.63v30.58s-5.81,0-5.81,0V.01c.17-.02.42-.01.6.03l26.79,31.76V1.07s5.8,0,5.8,0v45.2Z"/>
        <path d="M64.73,25.02l-2,.64,12.14,19.64h-6.68s-11.67-19.17-11.67-19.17h-5.19s0,19.18,0,19.18h-5.81s0-44.25,0-44.25h12.88c1.55,0,2.96.18,4.45.43,4.44.91,8.15,3.37,9.47,7.83,1.2,4.09.66,8.53-2.05,11.89-1.44,1.78-3.34,3.01-5.52,3.81ZM66.94,12.04c-.34-1.98-1.5-3.56-3.23-4.58-1.45-.83-3.06-1.3-4.78-1.31l-7.6-.02v15.3s7.07-.02,7.07-.02c1.93,0,3.75-.47,5.38-1.42,2.86-1.74,3.72-4.72,3.16-7.95Z"/>
        <polygon points="162.89 25.17 143.91 25.17 143.91 39.92 164.05 39.92 164.06 45.32 138.11 45.31 138.11 1.07 164.05 1.07 164.06 6.46 143.91 6.46 143.91 19.98 162.89 19.98 162.89 25.17"/>
        <path d="M260.73,39.28c-2.62,5.89-10.13,7.8-16.15,6.44-2.45-.62-4.67-1.64-6.78-3.03-1.72-1.15-3.25-2.45-4.76-3.92l3.34-4.3c1.45,1.31,2.9,2.53,4.53,3.62,1.49.97,2.99,1.72,4.68,2.27,2.01.58,4.11.63,6.11.06,2.54-.73,4.1-2.86,4.27-5.44.14-2.03-.49-3.88-2.06-5.2-1.26-1.06-2.56-1.99-4.03-2.79l-6.57-3.55c-3.36-1.82-6.61-4.32-7.86-8.04-.94-2.77-.7-5.81.48-8.47,1.96-4.41,6.71-6.51,11.41-6.64,3.8-.26,7.43.83,10.48,3.07l3.01,2.57-3.01,3.89c-1.84-1.61-3.79-2.89-6.02-3.74-3.71-1.52-8.87-.56-10.49,3.12-1.15,2.6-.28,5.52,1.93,7.24.97.76,1.91,1.43,3.01,2.02l6.86,3.69c1.59.86,3.02,1.81,4.39,2.98,1.8,1.53,3.25,3.38,3.91,5.68.81,2.82.5,5.82-.68,8.48Z"/>
        <polygon points="223.93 45.32 218.12 45.31 218.12 1.07 223.93 1.07 223.93 45.32"/>
      </g>
    </g>
  </g>
</svg>