<?xml version="1.0" encoding="UTF-8"?>
<svg id="Layer_2" data-name="Layer 2" xmlns="http://www.w3.org/2000/svg" viewBox="0 0 84.66 101.89">
  <g id="Layer_1-2" data-name="Layer 1">
    <path d="M43.51.18l41.15,100.15-40.36-21.36,5.96-4.89,10.33-6.36,3.88,11.64c-.59.63-4.51-2.74-6-2.96-.94-.13-3.75.16-3.31,1.79.44.89,14.42,8.14,16.53,9.09.62.28,1.63,1.33,2.09.24L41.97,14.16,11.68,86.36l38.48-25.62c.78-1.48-2.33-7.99-3.17-10.06-.4-.98-4.03-10.07-5.01-9.34l-6.22,16.3,7.33-3.93,1.66,4.7-21.4,14.75,19.02-45.8,15.03,35.58L.04,101.89c-.64-.81,6.42-17.06,7.38-19.4C17.79,57.16,28.13,31.42,39.27,6.42c.45-1,2.78-7.6,4.24-6.24"/>
  </g>
</svg>