<?xml version="1.0" encoding="UTF-8"?>
<svg id="Layer_2" data-name="Layer 2" xmlns="http://www.w3.org/2000/svg" viewBox="0 0 260.91 172.45">
  <defs>
    <style>
      .cls-1 {
        fill: #fff;
      }
    </style>
  </defs>
  <g id="Layer_1-2" data-name="Layer 1">
    <g>
      <path class="cls-1" d="M131.63.18l41.15,100.15-40.36-21.36,5.96-4.89,10.33-6.36,3.88,11.64c-.59.63-4.51-2.74-6-2.96-.94-.13-3.75.16-3.31,1.79.44.89,14.42,8.14,16.53,9.09.62.28,1.63,1.33,2.09.24l-31.82-73.38-30.29,72.2,38.48-25.62c.78-1.48-2.33-7.99-3.17-10.06-.4-.98-4.03-10.07-5.01-9.34l-6.22,16.3,7.33-3.93,1.66,4.7-21.4,14.75,19.02-45.8,15.03,35.58-57.35,38.94c-.64-.81,6.42-17.06,7.38-19.4,10.37-25.34,20.71-51.08,31.85-76.07.45-1,2.78-7.6,4.24-6.24"/>
      <g>
        <path class="cls-1" d="M130.49,127.16l-13.78,45.02c-.34.04-.63.04-.99,0l-11.59-30.15-11.6,30.17h-1.04s-13.78-45.04-13.78-45.04l5.73-.02,9.29,30.11,11.47-30.1,11.24,29.85c.04.19.09.23.15.09l9.44-29.94h5.46Z"/>
        <path class="cls-1" d="M205.86,172.35l-.59.1-26.78-31.63v30.58s-5.81,0-5.81,0v-45.3c.17-.02.42-.01.6.03l26.79,31.76v-30.72s5.8,0,5.8,0v45.2Z"/>
        <path class="cls-1" d="M63.78,151.11l-2,.64,12.14,19.64h-6.68s-11.67-19.17-11.67-19.17h-5.19s0,19.18,0,19.18h-5.81s0-44.25,0-44.25h12.88c1.55,0,2.96.18,4.45.43,4.44.91,8.15,3.37,9.47,7.83,1.2,4.09.66,8.53-2.05,11.89-1.44,1.78-3.34,3.01-5.52,3.81ZM65.98,138.12c-.34-1.98-1.5-3.56-3.23-4.58-1.45-.83-3.06-1.3-4.78-1.31l-7.6-.02v15.3s7.07-.02,7.07-.02c1.93,0,3.75-.47,5.38-1.42,2.86-1.74,3.72-4.72,3.16-7.95Z"/>
        <polygon class="cls-1" points="161.94 151.25 142.96 151.25 142.96 166 163.09 166 163.1 171.4 137.15 171.39 137.15 127.15 163.09 127.15 163.1 132.55 142.96 132.55 142.96 146.07 161.93 146.07 161.94 151.25"/>
        <path class="cls-1" d="M28.2,162.25H9.76s-3.61,9.14-3.61,9.14H0s18.41-44.99,18.41-44.99c.37-.08.68-.08,1.07-.02l18.55,45.01h-6.08s-3.75-9.14-3.75-9.14ZM26,156.85l-7.16-17.53-6.97,17.54h14.13Z"/>
        <path class="cls-1" d="M259.78,165.37c-2.62,5.89-10.13,7.8-16.15,6.44-2.45-.62-4.67-1.64-6.78-3.03-1.72-1.15-3.25-2.45-4.76-3.92l3.34-4.3c1.45,1.31,2.9,2.53,4.53,3.62,1.49.97,2.99,1.72,4.68,2.27,2.01.58,4.11.63,6.11.06,2.54-.73,4.1-2.86,4.27-5.44.14-2.03-.49-3.88-2.06-5.2-1.26-1.06-2.56-1.99-4.03-2.79l-6.57-3.55c-3.36-1.82-6.61-4.32-7.86-8.04-.94-2.77-.7-5.81.48-8.47,1.96-4.41,6.71-6.51,11.41-6.64,3.8-.26,7.43.83,10.48,3.07l3.01,2.57-3.01,3.89c-1.84-1.61-3.79-2.89-6.02-3.74-3.71-1.52-8.87-.56-10.49,3.12-1.15,2.6-.28,5.52,1.93,7.24.97.76,1.91,1.43,3.01,2.02l6.86,3.69c1.59.86,3.02,1.81,4.39,2.98,1.8,1.53,3.25,3.38,3.91,5.68.81,2.82.5,5.82-.68,8.48Z"/>
        <polygon class="cls-1" points="222.97 171.4 217.17 171.39 217.17 127.16 222.97 127.15 222.97 171.4"/>
      </g>
    </g>
  </g>
</svg>